<?xml version="1.0" standalone="no"?>
<!DOCTYPE svg PUBLIC "-//W3C//DTD SVG 20010904//EN"
 "http://www.w3.org/TR/2001/REC-SVG-20010904/DTD/svg10.dtd">
<svg version="1.0" xmlns="http://www.w3.org/2000/svg"
 width="930.000000pt" height="268.000000pt" viewBox="0 0 930.000000 268.000000"
 preserveAspectRatio="xMidYMid meet">

<g transform="translate(0.000000,268.000000) scale(0.100000,-0.100000)"
fill="#000000" stroke="none">
<path d="M1373 2467 c-60 -41 -250 -172 -423 -291 -173 -120 -408 -281 -522
-359 -140 -96 -211 -151 -218 -169 -22 -49 10 -98 64 -98 23 0 60 19 137 71
756 517 1152 795 1160 816 4 12 11 23 14 23 3 0 115 -52 248 -116 497 -240
507 -244 507 -208 0 14 -58 44 -395 204 -44 21 -156 75 -250 119 -93 45 -180
81 -192 81 -13 0 -71 -33 -130 -73z"/>
<path d="M4187 2258 c5 -7 49 -63 96 -125 l87 -112 -69 -318 c-59 -270 -165
-751 -231 -1049 -20 -94 -13 -126 38 -163 30 -21 33 -21 589 -21 l558 0 47
218 c26 119 95 435 153 702 59 267 126 573 149 680 l43 195 -220 3 c-121 1
-222 1 -224 -2 -6 -5 -37 -145 -193 -855 -72 -327 -132 -596 -134 -598 -2 -2
-75 -2 -163 -1 l-159 3 152 695 c83 382 154 710 158 728 l8 32 -347 0 c-276 0
-346 -3 -338 -12z"/>
<path d="M5956 2258 c4 -7 45 -61 91 -120 46 -60 83 -112 83 -117 0 -6 -38
-182 -84 -393 -47 -211 -121 -549 -166 -753 -44 -203 -83 -378 -86 -387 -5
-17 10 -18 220 -18 205 0 225 2 230 18 3 9 33 145 66 301 l62 284 -27 100
c-14 55 -28 104 -31 111 -2 6 23 28 56 50 33 21 63 42 66 47 3 5 30 120 60
257 30 136 56 257 59 270 5 22 7 22 185 22 99 0 180 -2 180 -5 0 -20 -102
-471 -108 -476 -4 -3 -90 -48 -192 -100 -102 -51 -186 -94 -188 -94 -2 -2 18
-81 163 -635 48 -184 89 -337 91 -339 7 -8 442 203 438 213 -5 15 -144 604
-144 611 0 2 53 32 119 64 l119 60 16 68 c8 37 40 181 70 318 135 621 129 573
76 626 l-28 29 -702 0 c-558 0 -700 -3 -694 -12z"/>
<path d="M8352 2253 c-5 -10 -100 -229 -210 -488 -110 -259 -275 -645 -367
-860 -92 -214 -171 -400 -176 -412 l-9 -23 243 0 242 0 87 202 86 202 -114
130 -113 131 167 3 167 3 61 152 c178 443 209 515 217 502 4 -8 3 -166 -3
-352 -5 -186 -10 -346 -10 -355 0 -17 -16 -18 -200 -18 -110 0 -200 -4 -200
-9 0 -5 7 -15 16 -22 9 -7 95 -102 190 -211 l174 -198 0 -80 0 -80 244 0 244
0 6 813 c4 446 9 851 12 900 l6 87 -376 0 c-347 0 -376 -1 -384 -17z"/>
<path d="M2876 2193 c-115 -516 -148 -686 -135 -698 8 -7 158 -113 334 -235
176 -122 321 -223 322 -224 1 -1 -4 -29 -11 -61 -8 -33 -19 -86 -26 -117 l-11
-58 -165 0 c-90 0 -164 2 -164 5 0 2 9 43 20 91 17 71 18 90 8 99 -15 14 -352
223 -371 230 -8 4 -19 -28 -35 -102 -27 -126 -63 -291 -98 -451 -14 -62 -23
-121 -19 -130 3 -10 21 -34 41 -53 l35 -34 562 0 561 0 32 150 c18 83 57 265
88 405 l56 255 -27 20 c-15 11 -160 114 -322 228 -163 114 -301 213 -308 220
-9 9 -8 30 6 92 l17 80 162 3 c89 1 162 -1 162 -5 -1 -5 -7 -35 -15 -68 -8
-33 -15 -63 -15 -66 0 -4 37 -29 83 -56 45 -28 134 -82 197 -121 l115 -71 67
302 c37 166 67 313 67 325 1 13 -8 37 -20 53 -43 61 -26 59 -628 59 l-549 0
-16 -67z"/>
<path d="M1405 2117 c-77 -53 -522 -359 -962 -662 -117 -81 -220 -156 -228
-168 -20 -29 -19 -57 4 -87 42 -54 37 -57 711 407 344 237 630 440 636 452 6
12 13 24 16 26 3 3 168 -73 368 -169 200 -96 370 -172 377 -169 32 12 8 37
-74 75 -49 23 -227 108 -397 189 -170 82 -323 151 -340 154 -27 5 -44 -2 -111
-48z"/>
<path d="M1470 1787 c-14 -7 -234 -157 -490 -334 -256 -176 -526 -361 -600
-412 -149 -102 -180 -130 -180 -167 0 -32 42 -74 73 -74 15 0 191 115 478 313
250 172 532 366 628 432 96 66 181 132 191 147 l16 27 185 -88 c101 -49 265
-127 363 -175 172 -83 211 -95 204 -61 -3 15 -767 388 -818 400 -14 3 -36 -1
-50 -8z"/>
<path d="M1486 1422 c-25 -5 -1234 -837 -1263 -869 -13 -13 -23 -35 -23 -49 0
-32 42 -74 73 -74 28 0 47 13 672 445 33 23 183 126 334 230 160 110 280 200
289 215 l16 28 90 -43 c50 -24 215 -102 365 -174 151 -72 281 -129 288 -127
33 13 5 37 -99 86 -62 30 -200 96 -308 148 -380 184 -399 192 -434 184z"/>
<path d="M1210 869 c-419 -288 -472 -324 -720 -494 -263 -180 -290 -202 -290
-240 0 -33 41 -75 74 -75 28 0 24 -3 751 498 313 215 528 370 540 388 l21 31
84 -41 c405 -196 644 -307 656 -302 17 7 18 20 2 34 -36 28 -778 375 -813 379
-38 5 -51 -3 -305 -178z"/>
</g>
</svg>
